<svg xmlns="http://www.w3.org/2000/svg" width="22" height="20"><path d="M17.44 20a2.724 2.724 0 112.74-2.724A2.738 2.738 0 0117.44 20zm0-3.814a1.09 1.09 0 101.09 1.09 1.094 1.094 0 00-1.09-1.093zm1.75-2.806H6.38a.823.823 0 01-.8-.627L2.9 1.638H.84a.817.817 0 110-1.634h2.71a.824.824 0 01.8.627l.74 3.078h16.1a.818.818 0 01.8 1.014l-2 8.037a.821.821 0 01-.8.616zM7.03 11.745h11.52l1.59-6.4H5.49zM7.48 20a2.724 2.724 0 112.74-2.724A2.738 2.738 0 017.48 20zm0-3.814a1.09 1.09 0 101.09 1.09 1.094 1.094 0 00-1.09-1.093z" fill="#29282d" fill-rule="evenodd"/></svg>