<svg xmlns="http://www.w3.org/2000/svg" width="16" height="16"><path id="Comment" d="M607.375 1097h-14.75a.624.624 0 00-.625.62V1110a.624.624 0 00.625.62h5.53l1.317 2.09a.626.626 0 001.056 0l1.316-2.09h5.531a.624.624 0 00.625-.62v-12.38a.624.624 0 00-.625-.62zm-.625 12.37h-5.25a.616.616 0 00-.529.3l-.971 1.53-.972-1.53a.613.613 0 00-.528-.3h-5.25v-11.12h13.5v11.12zm-7.531-5.56a.781.781 0 11.781.78.781.781 0 01-.781-.78zm-3.125 0a.781.781 0 11.781.78.781.781 0 01-.781-.78zm6.25 0a.781.781 0 11.781.78.781.781 0 01-.781-.78z" transform="translate(-592 -1097)" fill="#fe3e57" fill-rule="evenodd"/></svg>