<svg xmlns="http://www.w3.org/2000/svg" width="16" height="16"><path d="M4.696.098C3.393.157 2.265.475 1.353 1.383.44 2.295.124 3.429.065 4.717c-.036.805-.25 6.882.37 8.475a4.033 4.033 0 002.329 2.322c.506.197 1.084.33 1.932.37 7.088.32 9.716.145 10.824-2.692.197-.505.332-1.082.37-1.928.324-7.107-.053-8.647-1.288-9.881C13.622.405 12.469-.26 4.696.098m.065 14.356c-.776-.035-1.197-.164-1.478-.273a2.604 2.604 0 01-1.511-1.506c-.473-1.211-.316-6.963-.274-7.893.041-.912.226-1.745.87-2.388.795-.794 1.824-1.183 8.827-.867.913.041 1.748.225 2.393.867.796.794 1.191 1.83.87 8.806-.036.774-.165 1.194-.274 1.475-.72 1.846-2.378 2.102-9.423 1.779m6.51-10.702a.955.955 0 001.911 0 .955.955 0 00-1.91 0M3.89 7.99c0 2.252 1.83 4.078 4.088 4.078s4.087-1.826 4.087-4.078a4.082 4.082 0 00-4.087-4.076A4.082 4.082 0 003.89 7.99m1.435 0a2.65 2.65 0 012.653-2.646A2.65 2.65 0 0110.63 7.99a2.65 2.65 0 01-2.653 2.648A2.65 2.65 0 015.325 7.99"/></svg>